<?xml version="1.0" standalone="no"?>
<!DOCTYPE svg PUBLIC "-//W3C//DTD SVG 20010904//EN"
 "http://www.w3.org/TR/2001/REC-SVG-20010904/DTD/svg10.dtd">
<svg version="1.0" xmlns="http://www.w3.org/2000/svg"
 width="721.000000pt" height="557.000000pt" viewBox="0 0 721.000000 557.000000"
 preserveAspectRatio="xMidYMid meet">

<g transform="translate(0.000000,557.000000) scale(0.100000,-0.100000)"
fill="#000000" stroke="none">
<path d="M25 2850 c0 -1499 1 -2112 2 -1362 2 749 2 1975 0 2725 -1 749 -2
136 -2 -1363z"/>
<path d="M1713 5260 c-37 -56 -99 -150 -137 -209 -38 -58 -71 -108 -75 -111
-7 -5 -96 -139 -121 -181 -22 -37 -693 -1042 -705 -1055 -10 -12 -81 -120
-210 -319 -33 -51 -68 -103 -78 -116 -68 -92 -347 -523 -344 -532 2 -6 18 13
36 42 17 29 36 58 42 64 5 7 216 323 469 702 252 380 463 695 468 700 5 6 11
15 13 20 4 10 136 210 165 250 85 118 555 837 551 841 -3 4 -37 -40 -74 -96z"/>
<path d="M3540 5354 c0 -4 34 -59 76 -122 67 -102 74 -117 60 -128 -14 -10
-13 -12 12 -17 22 -4 43 -28 100 -113 40 -59 72 -115 72 -125 0 -10 8 -23 18
-28 10 -5 49 -55 86 -111 69 -103 88 -147 61 -136 -8 3 -15 1 -15 -4 0 -6 11
-10 23 -10 29 0 39 -11 117 -128 38 -59 59 -100 55 -111 -3 -12 2 -20 19 -27
34 -13 173 -224 155 -235 -7 -4 -17 -5 -21 -3 -4 3 -8 0 -8 -6 0 -7 6 -10 13
-7 7 3 23 0 34 -7 30 -16 166 -214 159 -232 -3 -8 5 -21 19 -30 27 -18 154
-203 160 -234 3 -17 0 -19 -23 -15 -19 3 -16 1 8 -8 19 -6 40 -15 47 -19 15
-10 143 -205 143 -218 0 -9 -14 -14 -32 -11 -5 0 -8 -4 -8 -9 0 -6 6 -10 13
-9 46 6 56 -3 132 -117 59 -89 74 -118 64 -125 -10 -6 -7 -10 11 -17 15 -6 52
-50 94 -111 77 -114 88 -141 60 -142 -11 0 -3 -5 16 -12 28 -10 48 -33 107
-121 40 -60 70 -113 67 -117 -3 -5 7 -19 21 -31 36 -32 155 -214 155 -238 0
-11 5 -20 11 -20 16 0 29 -16 102 -128 58 -89 66 -106 55 -120 -7 -9 -8 -13
-3 -10 18 11 50 -23 119 -125 69 -102 78 -127 49 -128 -10 0 -2 -5 17 -12 28
-10 48 -33 107 -121 40 -60 73 -113 73 -117 0 -4 -12 -12 -27 -18 l-28 -11 27
5 c31 6 75 -26 98 -71 8 -16 34 -57 58 -90 23 -34 42 -71 42 -83 0 -12 6 -21
14 -21 8 0 48 -52 91 -116 73 -110 76 -116 58 -130 -10 -9 -12 -13 -6 -9 7 3
22 0 34 -8 33 -24 161 -219 156 -239 -3 -11 2 -20 14 -23 18 -6 72 -78 138
-183 32 -51 33 -53 15 -67 -13 -10 -14 -13 -3 -10 26 9 62 -28 129 -134 36
-56 72 -101 80 -101 9 0 11 3 5 8 -10 7 -426 628 -434 647 -2 6 -7 12 -10 15
-6 5 -116 168 -136 202 -5 10 -257 388 -560 840 -302 453 -554 831 -560 840
-5 10 -68 104 -140 210 -71 105 -132 197 -135 202 -5 11 -26 42 -197 297 -43
64 -82 123 -88 132 -5 9 -100 150 -210 314 -110 164 -202 303 -204 308 -2 6
-7 12 -10 15 -6 5 -116 168 -136 202 -5 9 -68 104 -140 210 -71 106 -134 201
-140 210 -5 10 -64 97 -130 195 -66 97 -127 188 -135 202 -28 48 -121 181
-125 181 -3 0 -5 -3 -5 -6z"/>
<path d="M3433 5102 c-6 -4 33 -7 87 -7 54 0 93 3 87 7 -7 4 -46 8 -87 8 -41
0 -80 -4 -87 -8z"/>
<path d="M1985 5021 c-58 -79 -216 -293 -279 -378 -17 -23 -39 -52 -48 -65
-39 -54 -127 -174 -135 -183 -5 -5 -33 -44 -63 -85 -30 -41 -60 -82 -67 -90
-7 -8 -37 -49 -67 -90 -31 -41 -64 -86 -73 -99 -10 -13 -29 -39 -43 -57 -14
-18 -71 -95 -127 -171 -56 -76 -138 -187 -183 -248 -45 -60 -88 -119 -96 -130
-8 -11 -74 -100 -147 -197 -72 -98 -157 -212 -187 -254 -30 -42 -61 -83 -68
-92 -7 -10 -58 -78 -112 -152 -55 -74 -113 -152 -130 -172 -16 -20 -30 -41
-30 -47 0 -6 -3 -11 -7 -11 -5 0 -21 -21 -38 -45 -16 -25 -33 -45 -37 -45 -5
0 -8 -7 -8 -15 0 -21 17 -19 24 3 4 10 14 27 24 38 9 10 45 57 79 104 35 47
73 98 85 114 13 16 37 48 53 71 27 39 93 126 144 194 17 22 100 134 145 196 8
11 40 54 70 95 31 41 62 84 70 95 8 11 65 88 128 172 155 208 397 536 487 657
97 132 217 294 241 326 11 14 69 93 130 175 61 83 119 160 128 172 9 12 42 56
72 98 30 42 72 99 93 126 21 27 37 54 35 60 -2 6 -31 -26 -63 -70z"/>
<path d="M3280 5089 c0 -6 16 -32 36 -57 89 -116 124 -168 124 -185 0 -9 10
-22 23 -28 12 -6 43 -40 69 -77 26 -37 62 -87 80 -111 22 -30 29 -45 21 -48
-22 -8 -14 -20 15 -27 27 -6 42 -23 140 -160 46 -65 50 -76 27 -76 -8 0 -15
-5 -15 -11 0 -5 4 -7 10 -4 13 8 51 -13 72 -39 9 -12 46 -60 82 -108 58 -77
63 -88 48 -97 -15 -9 -13 -12 15 -21 23 -8 52 -38 100 -103 37 -51 73 -98 80
-105 7 -7 13 -22 13 -32 0 -11 9 -24 19 -29 10 -6 36 -34 57 -63 21 -29 42
-57 46 -63 74 -94 80 -109 56 -118 -7 -3 2 -8 20 -12 17 -4 32 -11 32 -14 0
-4 8 -16 18 -27 10 -10 43 -53 72 -94 30 -41 58 -78 63 -81 5 -4 6 -16 2 -28
-5 -16 -2 -21 13 -21 12 0 40 -28 78 -81 32 -45 69 -94 82 -109 29 -37 28 -50
-5 -51 -22 0 -18 -3 19 -15 26 -8 52 -23 58 -33 5 -11 16 -25 23 -33 7 -7 38
-49 70 -92 42 -59 54 -83 46 -92 -8 -10 -5 -15 15 -20 29 -7 186 -207 186
-237 0 -10 -4 -15 -10 -12 -5 3 -10 1 -10 -4 0 -6 10 -11 23 -11 13 0 33 -10
44 -22 40 -45 153 -208 153 -222 0 -8 8 -17 18 -21 25 -9 167 -211 165 -234
-2 -12 5 -21 20 -25 12 -3 46 -39 77 -82 30 -42 60 -82 65 -88 28 -31 43 -64
34 -73 -7 -7 -3 -12 14 -17 31 -7 191 -221 183 -243 -4 -9 1 -17 14 -20 18 -5
165 -187 177 -221 3 -8 0 -17 -6 -22 -9 -5 -5 -9 12 -14 24 -6 69 -58 161
-184 31 -43 36 -55 26 -67 -10 -12 -9 -15 8 -15 21 0 38 -19 136 -148 58 -74
70 -106 39 -95 -18 5 -58 45 -100 100 -12 15 -36 44 -53 63 -18 19 -38 50 -46
68 -8 17 -19 32 -25 32 -12 0 -24 12 -87 89 -75 90 -97 116 -104 119 -12 5
-10 32 2 32 20 0 9 16 -12 17 -21 2 -57 35 -113 104 -11 13 -39 47 -63 75 -23
27 -42 58 -42 66 0 9 -9 19 -19 23 -11 3 -30 20 -44 38 -14 18 -33 41 -43 52
-11 11 -37 43 -59 70 -21 28 -44 53 -49 57 -6 4 -5 12 2 21 10 12 8 16 -12 21
-27 7 -34 13 -91 81 -22 27 -45 53 -50 59 -6 6 -25 30 -43 53 l-34 43 27 10
c15 6 32 7 38 3 7 -3 8 -2 4 3 -5 5 -27 9 -50 10 -36 1 -47 7 -80 45 -108 124
-149 180 -143 195 3 9 11 12 18 8 8 -4 10 -3 5 2 -9 9 -13 10 -41 13 -18 1
-49 30 -99 93 -21 26 -43 53 -50 60 -46 48 -77 112 -45 92 6 -4 8 -3 4 4 -3 6
-19 13 -34 17 -19 4 -53 38 -112 111 -47 58 -84 112 -84 120 1 8 -10 21 -25
29 -15 7 -43 33 -62 56 -19 24 -51 63 -72 87 -53 61 -70 89 -62 101 3 6 -5 13
-18 16 -14 4 -54 43 -95 93 -39 48 -80 98 -93 111 -18 19 -20 27 -11 42 11 17
9 19 -11 19 -26 0 -43 17 -150 146 -37 45 -67 89 -67 98 0 9 -5 16 -10 16 -13
0 -40 27 -100 99 -25 30 -60 72 -78 92 -19 21 -31 43 -27 49 3 5 -6 18 -22 27
-27 15 -82 77 -166 185 -31 39 -35 49 -23 54 24 9 19 19 -11 21 -28 1 -40 12
-118 107 -22 27 -52 63 -67 80 -15 17 -28 41 -28 52 0 14 -8 24 -22 28 -13 3
-44 31 -70 63 -26 32 -59 72 -74 88 -42 48 -57 74 -50 90 4 10 -1 15 -14 15
-11 0 -30 12 -43 26 -12 15 -27 32 -32 38 -6 6 -45 53 -87 103 -43 51 -79 89
-82 85 -3 -5 7 -21 22 -38 15 -16 45 -52 67 -79 22 -28 50 -61 63 -75 13 -14
26 -37 29 -52 3 -16 12 -28 20 -28 17 0 18 -1 113 -115 41 -49 78 -93 83 -96
5 -4 6 -16 2 -28 -5 -16 -2 -21 13 -21 18 0 46 -27 107 -101 11 -13 39 -47 63
-75 23 -27 42 -58 42 -67 0 -9 5 -17 10 -17 13 0 40 -27 100 -99 25 -30 60
-71 78 -92 18 -21 30 -43 27 -51 -4 -10 4 -19 22 -27 35 -15 198 -216 197
-242 -1 -12 5 -19 16 -19 9 0 37 -24 61 -52 63 -75 80 -96 111 -132 15 -17 28
-41 28 -52 0 -14 8 -24 23 -28 13 -3 44 -32 69 -63 26 -32 54 -67 65 -78 60
-64 81 -110 46 -99 -15 5 -16 4 -3 -5 8 -6 22 -11 31 -11 15 0 57 -41 114
-111 83 -101 96 -120 93 -131 -3 -7 7 -18 22 -25 24 -10 80 -71 173 -191 18
-24 25 -42 21 -55 -5 -16 -3 -19 10 -14 17 7 38 -11 101 -88 75 -91 100 -120
108 -123 12 -6 8 -32 -5 -33 -7 0 1 -7 18 -14 28 -12 47 -31 109 -106 11 -13
40 -48 64 -76 37 -44 42 -55 31 -68 -10 -13 -9 -15 9 -15 26 0 64 -38 166
-165 21 -28 43 -53 47 -56 5 -3 6 -13 3 -21 -4 -11 1 -18 14 -23 24 -7 31 -14
82 -76 20 -24 57 -69 83 -99 38 -46 43 -57 31 -66 -22 -16 -19 -21 12 -21 28
0 30 -3 127 -117 94 -110 103 -126 69 -126 -21 0 -232 220 -233 243 0 9 -7 17
-16 17 -22 0 -235 221 -229 237 2 7 -13 22 -34 33 -22 11 -41 24 -43 29 -1 6
-42 50 -90 99 -82 83 -102 112 -78 112 6 0 10 5 10 10 0 6 -13 10 -28 10 -22
0 -50 22 -135 108 -59 60 -107 117 -107 126 0 9 4 15 8 12 4 -2 14 0 22 5 13
9 13 10 0 8 -53 -5 -67 4 -172 114 -59 61 -108 118 -108 125 0 7 5 10 10 7 6
-3 10 -2 10 3 0 5 -15 12 -32 16 -24 5 -59 34 -135 114 -56 59 -103 115 -103
125 0 10 -10 22 -22 26 -13 5 -70 57 -127 114 -82 83 -103 110 -98 126 4 17 1
21 -18 21 -16 0 -54 33 -129 111 -98 102 -130 150 -90 135 8 -3 12 -2 9 4 -3
6 -19 10 -34 10 -21 0 -43 16 -96 73 -37 39 -86 91 -109 115 -32 33 -38 45
-27 51 10 6 4 12 -22 20 -24 8 -66 45 -134 118 -54 58 -99 111 -101 118 -2 8
5 15 15 18 11 3 7 5 -11 6 -24 1 -53 24 -143 114 -62 61 -113 119 -113 127 0
11 10 15 35 15 19 -1 35 2 35 7 0 5 -19 9 -42 8 -60 -3 -62 -2 -84 18 -33 32
-189 204 -192 213 -2 5 11 9 30 10 38 1 30 5 -27 14 -35 5 -55 22 -162 133
-67 70 -124 124 -127 122 -3 -3 44 -57 103 -120 60 -63 107 -118 104 -122 -2
-5 -14 -8 -25 -8 -32 0 -13 -13 24 -15 26 -2 53 -24 146 -118 63 -64 111 -120
108 -126 -4 -6 6 -17 21 -25 50 -25 230 -219 225 -241 -1 -7 10 -17 26 -23 27
-9 219 -205 223 -227 1 -5 -9 -16 -22 -23 l-24 -14 24 6 c13 2 34 1 47 -4 21
-9 225 -210 232 -231 2 -5 -7 -13 -20 -19 -20 -8 -20 -10 -3 -9 53 3 50 5 188
-138 49 -51 86 -97 83 -102 -4 -6 6 -17 22 -25 40 -21 222 -215 222 -237 0
-10 10 -20 23 -24 32 -9 239 -227 227 -239 -17 -17 -11 -26 15 -26 19 0 52
-27 133 -111 59 -61 109 -115 110 -120 5 -13 -15 -11 -83 6 -81 22 -134 47
-175 86 -19 18 -58 54 -86 80 -29 27 -49 50 -46 53 3 4 30 6 60 6 80 0 63 23
-24 32 -72 6 -117 20 -138 41 -7 6 -45 41 -86 77 -125 111 -125 110 -35 110
51 0 65 3 65 15 0 12 -17 15 -92 15 l-93 0 -112 102 c-68 62 -109 106 -104
111 5 5 45 13 88 18 43 4 83 8 88 9 33 4 -49 21 -95 20 -145 -4 -152 -3 -201
43 -25 23 -72 65 -104 94 l-59 52 38 16 c20 9 58 20 83 24 66 13 73 27 13 30
-48 2 -81 -9 -108 -36 -22 -22 -66 -10 -60 16 2 7 -11 18 -29 24 -18 7 -65 41
-104 77 -40 36 -76 67 -80 68 -17 7 -9 29 14 39 73 35 119 53 137 53 11 0 20
5 20 10 0 14 -127 13 -136 -1 -4 -8 0 -9 15 -4 15 4 19 3 16 -7 -6 -14 -75
-48 -99 -48 -20 0 -47 35 -41 52 5 12 -3 17 -27 22 -23 4 -58 29 -108 75 l-75
69 65 41 c36 23 77 44 93 48 15 3 27 9 27 14 0 14 -37 20 -63 10 -14 -5 -27
-7 -30 -4 -3 3 -4 -3 -1 -14 4 -13 -7 -25 -41 -45 -59 -36 -74 -35 -115 7 -19
19 -28 35 -21 35 21 0 2 18 -27 25 -15 3 -55 32 -90 64 l-62 57 32 24 c36 26
38 28 83 63 17 13 44 29 60 34 l30 11 -27 7 c-38 10 -63 3 -66 -20 -2 -11 -30
-39 -62 -62 l-60 -43 -52 43 c-31 25 -53 51 -53 63 0 13 -8 20 -25 22 -26 4
-110 78 -110 97 0 11 122 124 153 141 13 7 16 14 9 18 -10 6 -36 -14 -142
-111 -19 -18 -40 -33 -46 -33 -6 0 -44 31 -85 70 -41 38 -77 69 -81 70 -19 1
-2 -19 68 -80 42 -36 73 -71 72 -79 -3 -15 -197 -194 -228 -211 -10 -6 -39 10
-94 51 -43 33 -81 58 -83 55 -5 -5 47 -55 58 -56 4 0 22 -13 40 -30 19 -16 37
-30 42 -30 20 0 1 -28 -55 -80 -35 -31 -85 -78 -113 -103 -27 -26 -58 -47 -67
-47 -10 0 -50 20 -90 45 -39 24 -76 41 -82 38 -6 -4 -5 -8 4 -11 8 -3 46 -25
84 -50 l70 -44 -61 -57 c-120 -109 -182 -161 -193 -161 -11 0 -90 32 -122 50
-10 6 -26 10 -35 10 -10 0 7 -12 37 -26 30 -15 65 -31 78 -37 12 -6 22 -14 22
-18 0 -6 -96 -96 -215 -202 -12 -11 -28 -16 -41 -13 -27 7 -38 -4 -18 -18 13
-10 5 -21 -52 -71 -38 -33 -93 -82 -122 -108 -49 -44 -58 -48 -91 -43 -109 18
-121 18 -121 7 0 -7 19 -11 48 -11 27 0 56 -6 65 -13 16 -11 5 -23 -92 -112
-61 -55 -124 -104 -141 -109 -19 -6 -29 -14 -26 -22 3 -7 -34 -49 -86 -96 -50
-46 -97 -89 -104 -96 -21 -20 -93 -42 -140 -42 -23 0 -46 -4 -49 -10 -8 -13
40 -13 84 0 19 5 37 8 39 5 4 -4 -39 -46 -168 -164 -44 -40 -124 -78 -187 -88
-18 -3 -33 -10 -33 -15 0 -6 11 -8 25 -4 14 3 36 9 50 12 14 4 25 2 25 -3 0
-5 -45 -49 -100 -98 -74 -66 -122 -100 -187 -132 -48 -23 -79 -42 -67 -42 11
-1 24 3 30 8 5 5 20 12 33 16 22 7 22 5 -7 -26 -17 -19 -60 -59 -96 -89 -51
-43 -66 -61 -66 -82 0 -16 3 -28 6 -28 6 0 66 40 74 50 23 28 390 270 410 270
5 0 10 5 10 10 0 6 4 10 9 10 5 0 58 30 118 66 102 63 251 140 373 193 30 14
87 39 125 56 118 54 246 103 340 131 50 14 99 30 110 34 22 9 96 31 190 56 33
9 114 25 180 35 66 11 143 24 170 29 154 28 234 32 555 27 184 -3 362 -9 395
-15 33 -6 94 -15 135 -21 162 -24 212 -34 300 -61 14 -4 54 -16 90 -25 36 -9
74 -21 85 -25 11 -4 61 -20 110 -35 50 -14 96 -28 103 -30 6 -3 12 -12 12 -20
0 -12 -6 -15 -22 -9 -13 3 -20 3 -16 -1 4 -4 35 -9 70 -11 68 -5 90 -11 183
-54 33 -15 83 -38 110 -50 159 -70 265 -125 265 -137 0 -9 -10 -11 -37 -7 -21
3 -34 2 -30 -2 4 -5 38 -11 75 -14 58 -6 78 -14 147 -57 44 -27 85 -52 90 -54
6 -2 50 -28 98 -58 56 -34 86 -59 83 -67 -3 -9 9 -17 36 -25 23 -6 86 -43 141
-82 54 -40 108 -79 120 -87 12 -8 31 -23 41 -32 11 -10 24 -18 29 -18 4 0 5
-9 2 -20 -4 -11 -3 -19 2 -18 19 6 73 -24 144 -78 129 -101 187 -154 185 -171
0 -10 10 -19 27 -24 15 -4 66 -43 114 -86 48 -43 102 -91 120 -107 18 -16 32
-36 31 -45 -2 -11 6 -17 25 -19 41 -5 245 -213 239 -245 -3 -14 4 -17 37 -17
46 0 46 0 158 -137 41 -51 72 -96 69 -101 -10 -17 24 -37 42 -25 13 7 26 6 50
-5 17 -9 32 -18 32 -21 0 -3 14 -22 30 -41 16 -19 30 -38 30 -42 0 -4 6 -13
13 -20 34 -36 75 -102 70 -114 -3 -8 -10 -11 -16 -7 -6 3 -7 1 -3 -5 9 -14 76
-16 76 -2 0 5 -6 13 -14 17 -19 11 -167 211 -171 231 -2 10 -4 20 -4 25 -1 4
-8 7 -16 7 -8 0 -36 30 -63 66 -26 37 -52 72 -57 78 -34 36 -56 78 -50 96 5
15 2 20 -14 20 -11 0 -32 16 -48 37 -15 21 -30 40 -33 43 -24 21 -110 153
-105 160 3 5 -4 14 -15 20 -32 17 -181 223 -175 241 4 11 -2 19 -17 23 -13 3
-33 21 -46 38 -13 18 -48 66 -78 106 -30 40 -54 82 -54 92 0 10 -9 21 -19 25
-11 3 -41 36 -67 73 -26 37 -50 69 -53 72 -24 21 -62 84 -57 95 3 8 -3 17 -14
20 -11 3 -30 21 -42 38 -12 18 -26 37 -31 42 -4 6 -30 40 -57 77 -48 64 -59
87 -42 89 29 3 67 11 71 15 2 2 -21 4 -51 4 -54 0 -58 2 -90 43 -18 23 -36 44
-40 45 -5 2 -8 8 -8 14 0 5 -21 36 -46 68 -25 32 -43 64 -39 70 3 5 11 7 17 4
7 -4 8 -2 4 4 -4 7 -15 12 -26 12 -18 0 -65 51 -135 150 -22 30 -43 57 -47 58
-5 2 -8 14 -8 27 0 15 -9 29 -22 36 -13 7 -26 17 -30 23 -3 6 -38 54 -77 106
-70 93 -80 116 -47 114 9 -1 16 2 16 7 0 5 -15 9 -33 9 -31 0 -39 9 -115 111
-45 61 -82 119 -82 129 0 10 -8 21 -18 24 -9 3 -38 33 -62 67 -25 33 -49 66
-55 72 -43 51 -67 91 -57 95 20 6 14 20 -10 24 -15 2 -45 32 -86 88 -35 47
-72 96 -83 110 -11 14 -18 33 -15 43 2 9 -1 17 -9 17 -13 0 -62 53 -105 115
-14 20 -38 52 -53 72 -34 44 -32 68 5 68 53 1 41 15 -13 15 l-54 0 -45 62
c-25 34 -62 85 -82 112 -21 28 -38 54 -38 58 0 7 81 11 242 13 26 0 49 3 52 6
3 3 -67 5 -155 4 -135 0 -162 2 -172 16 -7 9 -22 29 -35 45 -86 111 -123 167
-118 180 3 9 -3 19 -18 25 -13 6 -50 47 -82 91 -33 44 -69 92 -82 108 -12 15
-20 35 -16 43 3 10 -2 18 -14 21 -20 7 -42 32 -146 175 -32 45 -60 81 -62 81
-2 0 -4 -5 -4 -11z m-570 -988 c18 -15 30 -33 26 -39 -4 -7 8 -18 30 -27 32
-13 133 -96 142 -116 2 -4 -16 -21 -40 -37 -24 -16 -56 -41 -72 -55 -16 -14
-44 -28 -63 -32 -23 -4 -33 -11 -33 -25 0 -37 -63 -36 -75 1 -4 10 -18 22 -32
25 -25 7 -174 112 -172 123 0 5 68 67 200 184 40 34 48 34 89 -2z m-267 -223
c17 -13 40 -31 51 -40 11 -10 23 -18 28 -18 16 0 7 -30 -9 -31 -10 -1 2 -6 27
-11 46 -10 100 -42 100 -58 0 -5 -26 -28 -57 -51 -32 -24 -60 -45 -63 -49 -13
-15 -109 -80 -119 -80 -6 0 -29 11 -51 25 -22 14 -42 25 -45 25 -3 0 -37 21
-77 46 l-72 46 50 47 c125 114 190 170 197 171 4 0 22 -10 40 -22z m540 -24
c26 -25 47 -51 47 -58 0 -8 10 -16 23 -20 35 -8 117 -84 110 -101 -3 -8 -9
-15 -15 -15 -5 0 -34 -16 -64 -35 -30 -19 -57 -35 -59 -35 -3 0 -23 -11 -45
-25 -22 -14 -45 -25 -51 -25 -15 0 -239 169 -239 180 0 12 49 45 85 57 17 6
29 16 28 24 -2 14 102 97 122 98 6 0 31 -20 58 -45z m-286 -169 c10 -8 54 -41
99 -74 84 -62 104 -95 53 -86 -15 3 -30 1 -33 -3 -3 -4 7 -8 21 -8 36 1 39
-17 6 -35 -16 -7 -58 -33 -96 -56 -37 -24 -74 -43 -81 -43 -8 0 -54 25 -102
55 -49 30 -92 55 -97 55 -4 0 -5 10 -2 21 5 15 4 19 -5 14 -8 -5 -11 -2 -8 10
4 20 186 163 210 164 10 1 26 -6 35 -14z m-457 -75 c44 -27 84 -50 90 -50 5 0
11 -11 12 -25 0 -14 1 -29 2 -35 1 -5 -44 -44 -99 -85 -114 -86 -101 -85 -230
-25 -47 22 -90 40 -95 40 -27 0 -15 25 32 69 29 27 80 74 113 105 33 30 68 56
78 56 9 0 53 -22 97 -50z m1023 -4 c34 -33 57 -63 57 -75 0 -15 6 -21 24 -21
26 0 90 -56 81 -70 -4 -6 -11 -10 -17 -10 -5 0 -48 -18 -94 -40 -127 -60 -115
-61 -228 24 -55 42 -104 83 -109 92 -7 12 -6 15 2 10 7 -5 11 2 11 18 0 14 6
26 13 27 6 0 46 22 87 49 41 27 84 49 95 49 11 0 46 -24 78 -53z m-211 -186
c50 -39 95 -70 100 -70 4 0 8 -7 8 -15 0 -20 -80 -55 -141 -62 -27 -3 -49 -9
-49 -13 0 -5 -8 -7 -17 -5 -10 1 -12 0 -5 -2 21 -7 7 -28 -19 -28 -17 0 -24 6
-24 20 0 15 -9 21 -41 27 -44 7 -164 76 -164 93 0 10 102 77 185 122 47 25 43
27 167 -67z m-599 63 c76 -42 177 -108 177 -118 0 -18 -119 -85 -177 -99 -32
-8 -50 -14 -40 -15 9 -1 17 -5 17 -10 0 -16 -20 -23 -46 -17 -20 5 -23 10 -15
20 9 11 0 16 -48 24 -63 11 -151 47 -151 61 0 14 213 171 232 171 10 0 33 -8
51 -17z m-494 -84 c116 -54 151 -72 151 -79 0 -15 -235 -181 -250 -177 -8 3
-37 10 -65 17 -54 14 -72 20 -124 42 l-34 14 84 76 c128 116 153 138 163 138
4 0 38 -14 75 -31z m1525 5 c81 -68 137 -127 126 -134 -7 -4 -20 -5 -30 -3
-10 3 -20 1 -23 -4 -3 -5 12 -8 34 -7 23 0 52 -7 71 -19 l32 -19 -24 -14 c-14
-7 -35 -13 -47 -14 -12 0 -25 -4 -28 -10 -3 -5 -16 -10 -29 -10 -12 0 -26 -3
-30 -7 -4 -5 -11 -8 -14 -9 -4 0 -22 -4 -40 -8 -28 -7 -38 -3 -83 33 -29 23
-55 41 -60 41 -4 0 -9 9 -11 21 -2 14 -15 25 -41 34 -40 14 -67 32 -67 46 0 5
35 25 78 44 42 20 91 42 107 50 40 19 42 19 79 -11z m-755 -85 c32 -20 51 -39
51 -50 0 -14 7 -19 28 -19 32 0 74 -20 79 -37 3 -7 -17 -22 -44 -34 -26 -11
-75 -34 -108 -50 -33 -16 -64 -29 -70 -29 -6 0 -37 13 -70 29 -33 16 -81 38
-107 50 -26 11 -49 25 -52 30 -8 12 55 41 88 41 19 0 26 5 26 19 0 19 82 79
112 80 9 1 39 -13 67 -30z m-539 -24 c14 -8 21 -14 17 -15 -25 -1 24 -28 59
-32 47 -6 96 -28 101 -44 2 -6 -9 -17 -24 -24 -16 -8 -63 -36 -105 -62 -50
-31 -89 -48 -110 -48 -32 0 -129 25 -160 41 -10 5 -27 9 -38 9 -43 0 -21 24
114 124 49 36 96 66 105 66 9 -1 27 -7 41 -15z m1025 1 c15 -11 17 -17 8 -28
-10 -11 -6 -14 20 -16 32 -2 96 -41 150 -90 32 -30 34 -42 7 -42 -11 0 -28 -4
-38 -9 -31 -16 -128 -41 -160 -41 -21 0 -60 17 -112 50 -44 28 -84 50 -90 50
-5 0 -10 5 -10 10 0 6 -7 10 -15 10 -8 0 -15 5 -15 10 0 16 80 50 117 50 22 0
33 6 38 19 11 35 68 51 100 27z m-1485 -131 c41 -14 82 -25 92 -25 37 0 15
-32 -59 -87 -43 -31 -86 -65 -97 -74 -36 -34 -75 -43 -122 -31 -25 7 -62 12
-83 12 -78 0 -91 21 -38 64 17 14 66 57 107 96 86 80 91 81 200 45z m746 2
c27 -13 73 -35 102 -48 l54 -23 -29 -23 c-15 -13 -33 -23 -39 -23 -5 0 -30 -9
-54 -21 -34 -17 -62 -21 -131 -21 -48 0 -97 5 -108 11 -11 6 -31 11 -44 11
-22 0 -56 25 -46 34 9 8 95 59 137 83 26 14 51 29 57 34 15 15 49 10 101 -14z
m504 -2 c22 -14 42 -25 44 -25 3 0 35 -19 71 -41 59 -37 64 -43 48 -54 -35
-24 -188 -44 -255 -34 -48 8 -171 60 -182 77 -3 5 28 24 70 42 41 19 85 39 97
46 35 19 64 16 107 -11z m780 -6 c107 -94 151 -142 138 -150 -10 -7 -9 -9 4
-9 10 0 15 -7 14 -17 -2 -14 -16 -19 -57 -24 -30 -3 -47 -7 -39 -9 19 -3 14
-3 91 5 49 5 70 3 80 -7 8 -7 56 -51 107 -97 50 -46 92 -88 92 -92 0 -5 -49
-9 -109 -9 l-109 0 -111 83 c-61 45 -111 85 -111 90 0 4 11 7 25 7 14 0 25 5
25 11 0 6 -14 9 -36 6 -48 -7 -86 10 -82 36 2 16 -4 21 -27 24 -36 5 -159 92
-163 116 -2 12 3 17 20 18 13 0 52 11 88 24 91 32 118 31 160 -6z m-1800 -64
c30 -10 69 -19 87 -22 45 -7 62 -29 37 -48 -10 -8 -31 -15 -46 -15 -41 0 -56
-9 -51 -31 3 -10 0 -19 -6 -19 -6 0 -30 -12 -53 -26 -37 -24 -47 -26 -112 -20
-39 3 -93 9 -121 13 l-50 8 25 25 c14 14 38 34 53 45 16 11 56 41 90 67 34 26
69 46 77 43 8 -2 40 -11 70 -20z m1555 -22 c36 -27 65 -55 65 -64 0 -11 12
-19 35 -23 19 -4 41 -17 50 -29 15 -22 15 -22 -32 -30 -27 -4 -80 -10 -119
-13 -65 -6 -75 -4 -112 20 -23 14 -46 26 -52 26 -13 0 -13 23 1 37 7 7 -3 11
-35 11 -25 1 -58 9 -72 19 l-27 17 29 12 c16 7 56 20 89 29 33 10 69 21 80 26
31 12 32 12 100 -38z m-773 -25 c27 -13 46 -28 43 -35 -4 -13 7 -17 68 -28 37
-6 52 -25 19 -25 -10 0 -51 -11 -92 -25 -41 -13 -93 -24 -115 -24 -22 0 -74
11 -115 24 -41 14 -82 25 -92 25 -10 0 -18 4 -18 9 0 10 34 21 67 21 12 0 24
8 27 18 8 23 83 59 126 61 19 0 56 -9 82 -21z m-536 -35 c8 -13 37 -21 91 -29
l78 -10 -109 -53 c-118 -58 -123 -59 -208 -47 -40 5 -58 4 -58 -3 0 -6 20 -11
45 -11 25 0 45 -4 45 -8 0 -9 -44 -33 -143 -76 -39 -18 -75 -26 -112 -26 -56
0 -69 -12 -43 -38 9 -9 9 -12 -3 -12 -8 0 -33 -8 -55 -19 -109 -52 -171 -71
-228 -71 -20 0 -36 -4 -36 -8 0 -7 -27 -8 -48 -3 -5 1 22 27 33 32 6 2 42 24
82 47 40 24 90 46 113 49 22 3 40 10 40 15 0 5 -4 6 -10 3 -5 -3 -7 0 -5 7 3
7 49 40 103 72 96 57 98 58 155 51 37 -4 57 -2 57 5 0 5 -16 10 -36 10 -44 0
-41 16 7 43 84 48 105 57 126 57 16 0 23 6 23 20 0 17 7 20 41 20 28 0 46 -6
55 -17z m1014 7 c0 -5 -6 -10 -12 -10 -22 0 15 -20 37 -20 11 0 36 -8 55 -19
124 -66 132 -76 68 -84 -195 -26 -176 -27 -273 18 -44 20 -90 41 -102 46 -40
15 -25 27 45 34 62 6 133 22 105 24 -7 1 -13 6 -13 11 0 6 20 10 45 10 25 0
45 -4 45 -10z m-1728 -71 c15 0 29 -3 33 -9 3 -5 17 -10 31 -10 13 0 24 -3 24
-7 0 -5 -49 -44 -108 -88 -98 -73 -164 -110 -176 -98 -3 3 -3 -3 0 -14 3 -13
-17 -34 -83 -83 -139 -103 -131 -100 -268 -115 -27 -3 -56 -8 -63 -10 -30 -10
-9 11 182 187 10 9 32 20 48 23 21 5 28 11 23 23 -3 8 -2 18 3 21 5 3 47 40
92 81 46 41 92 83 104 93 17 16 30 17 76 11 30 -4 67 -6 82 -5z m1003 -14 c33
-9 73 -20 88 -22 39 -7 29 -25 -24 -42 -24 -8 -53 -17 -64 -21 -50 -19 -107
-31 -124 -25 -10 3 -24 -1 -30 -9 -7 -8 -38 -22 -69 -31 -31 -9 -67 -21 -80
-26 -28 -11 -232 -12 -232 -1 0 4 12 13 28 19 15 7 54 24 87 39 63 27 60 27
214 8 39 -5 52 -4 47 5 -4 6 -28 11 -54 11 -26 1 -58 7 -72 15 l-25 13 25 10
c14 5 54 23 90 39 91 42 93 42 115 39 11 -2 47 -11 80 -21z m554 -27 c86 -40
90 -43 69 -55 -13 -7 -38 -12 -57 -13 -18 0 -51 -5 -72 -12 -41 -12 -41 -12
-196 34 -76 22 -98 48 -43 48 17 0 30 5 30 10 0 6 12 10 28 11 15 0 43 7 62
14 47 19 71 14 179 -37z m-1255 -13 c50 -12 50 -12 25 -27 -13 -8 -61 -38
-106 -66 -52 -33 -98 -53 -128 -58 -26 -3 -42 -9 -37 -13 16 -10 3 -24 -58
-62 -87 -55 -160 -86 -226 -98 -106 -19 -138 -13 -93 19 11 8 53 39 92 68 40
30 89 61 109 69 20 8 35 20 33 26 -2 7 44 47 102 90 l107 77 65 -6 c36 -4 88
-12 115 -19z m2029 -54 c58 -43 103 -81 100 -85 -4 -3 -54 -6 -113 -6 l-106 0
-73 45 c-40 25 -75 45 -78 45 -3 0 -19 10 -36 22 l-31 22 34 9 c35 8 137 23
176 26 12 0 66 -33 127 -78z m-1078 19 c22 -6 51 -14 65 -17 14 -3 34 -13 45
-23 12 -11 45 -20 84 -24 35 -3 70 -11 77 -17 7 -6 23 -9 36 -7 22 4 22 5 3
12 -11 4 -31 13 -44 19 -23 11 -21 12 25 20 136 21 156 20 219 -7 33 -15 72
-32 88 -39 15 -6 27 -15 27 -19 0 -13 -199 -9 -241 4 -31 9 -44 8 -63 -1 -31
-17 -239 -10 -281 9 l-30 14 55 6 c30 3 51 8 45 11 -5 4 -21 5 -35 3 -109 -14
-197 -15 -269 -4 -67 10 -79 15 -70 26 6 8 18 14 27 14 16 0 72 16 107 31 23
10 74 6 130 -11z m743 2 c15 -11 32 -21 37 -23 26 -10 125 -75 125 -81 0 -5
-47 -8 -104 -8 -91 0 -113 4 -168 27 -35 14 -67 30 -72 35 -6 4 -16 8 -24 8
-13 0 -42 23 -42 34 0 3 19 6 43 6 23 0 47 4 54 8 6 4 36 8 67 10 43 2 63 -1
84 -16z m-919 -78 c2 -2 -9 -9 -25 -15 -40 -17 -262 -25 -277 -10 -8 8 -4 11
14 11 14 0 29 4 35 9 5 5 20 11 34 14 26 5 212 -3 219 -9z m-555 -73 c3 -5 -7
-11 -22 -14 -15 -3 -54 -12 -87 -21 -33 -10 -89 -19 -125 -22 l-65 -4 70 34
c61 30 80 35 147 35 42 1 79 -3 82 -8z m141 -1 c15 -7 10 -9 -23 -9 -26 -1
-41 3 -37 9 7 12 32 12 60 0z m1080 0 c4 -6 -11 -10 -37 -10 -31 0 -39 3 -28
10 20 13 57 13 65 0z m310 -26 l70 -34 -65 4 c-36 3 -92 12 -125 22 -33 9 -72
18 -87 21 -53 10 -16 23 60 22 67 0 86 -5 147 -35z m273 -21 l92 -57 -28 -12
c-26 -12 -26 -12 18 -13 30 -1 64 -12 100 -31 30 -17 63 -33 73 -36 26 -9 20
-24 -10 -24 -30 0 -137 38 -211 76 -34 17 -41 24 -24 24 12 0 22 5 22 10 0 6
-14 10 -31 10 -47 0 -144 29 -201 60 -10 6 -25 10 -33 10 -8 0 -15 5 -15 10 0
6 -7 10 -15 10 -8 0 -15 5 -15 10 0 6 38 10 93 10 l93 0 92 -57z m264 -16 c54
-39 98 -76 98 -81 0 -9 -59 -4 -151 12 -45 8 -249 118 -249 134 0 4 46 8 103
8 l102 0 97 -73z m264 -18 c106 -98 120 -114 105 -124 -6 -3 -8 -12 -4 -20 4
-11 1 -13 -10 -9 -9 3 -23 2 -31 -3 -10 -6 9 -9 52 -8 l69 0 74 -65 c94 -82
99 -87 99 -94 0 -10 -31 -7 -89 10 -78 23 -98 32 -168 82 -56 38 -67 51 -65
73 1 4 -13 9 -30 13 -17 3 -37 11 -45 18 -12 10 -11 14 9 24 22 13 21 13 -16
14 -32 0 -56 12 -135 70 -119 86 -131 96 -131 104 0 3 49 6 108 6 l108 0 100
-91z m-2711 -35 c-22 -8 -46 -13 -55 -10 -9 2 -6 4 7 5 12 0 25 6 28 11 3 6
18 10 33 9 24 0 22 -2 -13 -15z m2080 6 c3 -5 16 -11 28 -11 13 -1 16 -3 7 -5
-9 -3 -33 2 -55 10 -35 13 -37 15 -13 15 15 1 30 -3 33 -9z m-2253 -41 c-65
-32 -220 -89 -239 -89 -25 0 -12 17 30 39 107 59 137 71 175 71 23 0 43 4 46
9 3 5 15 7 27 4 17 -5 9 -11 -39 -34z m-172 -3 c0 -2 -39 -28 -87 -58 -92 -56
-183 -98 -214 -98 -10 0 -21 -5 -24 -10 -4 -6 -9 -9 -13 -6 -4 2 -16 -1 -27
-5 -14 -7 -5 -8 30 -5 28 3 43 2 35 -1 -8 -3 -17 -9 -20 -12 -20 -26 -277
-157 -287 -147 -4 3 -4 7 -2 9 2 1 30 22 61 45 75 55 124 82 149 82 15 0 19 5
15 15 -3 8 2 22 11 30 37 38 162 123 194 133 61 19 179 38 179 28z m2883 -15
c74 -12 110 -34 103 -64 -3 -12 -3 -17 0 -11 6 15 88 -24 127 -61 15 -14 27
-27 27 -29 0 -5 -90 22 -162 48 -58 21 -74 40 -40 49 9 3 -1 5 -23 6 -23 0
-60 12 -85 26 -25 14 -53 28 -62 32 -34 11 -19 26 20 19 20 -3 63 -10 95 -15z
m-3133 -25 c0 -7 -182 -142 -223 -165 -21 -11 -46 -21 -56 -21 -10 0 -21 -3
-25 -7 -4 -5 -11 -8 -14 -9 -4 0 -24 -4 -45 -8 -43 -9 -56 -3 -35 16 101 95
184 161 210 170 18 6 60 14 93 18 85 10 95 11 95 6z m90 -106 c0 -5 -4 -10
-10 -10 -5 0 -10 5 -10 10 0 6 5 10 10 10 6 0 10 -4 10 -10z m3090 0 c0 -5 -4
-10 -10 -10 -5 0 -10 5 -10 10 0 6 5 10 10 10 6 0 10 -4 10 -10z m-3123 -16
c-3 -3 -12 -4 -19 -1 -8 3 -5 6 6 6 11 1 17 -2 13 -5z m3160 0 c-3 -3 -12 -4
-19 -1 -8 3 -5 6 6 6 11 1 17 -2 13 -5z m158 -35 c5 -5 17 -9 27 -9 22 0 73
-29 139 -77 72 -54 35 -55 -66 -2 -44 23 -90 47 -102 53 -13 6 -23 14 -23 19
0 4 -7 7 -15 7 -8 0 -15 4 -15 9 0 5 -8 12 -17 15 -10 2 0 2 22 -1 22 -3 44
-9 50 -14z m-3677 -71 c-91 -81 -280 -198 -320 -198 -8 0 -19 -5 -26 -12 -7
-7 -12 -8 -12 -4 0 11 103 109 171 163 20 16 148 63 171 63 10 0 18 5 18 11 0
5 5 7 10 4 7 -4 2 -15 -12 -27z m3907 1 c5 -5 17 -9 26 -9 10 0 38 -9 64 -20
38 -16 45 -23 40 -40 -5 -16 -2 -20 19 -20 16 0 46 -19 83 -51 77 -67 86 -83
36 -63 -134 55 -210 107 -180 126 7 5 0 8 -18 8 -31 0 -69 20 -120 64 l-30 26
35 -7 c19 -3 39 -10 45 -14z m344 -89 c16 0 221 -214 221 -230 0 -33 -171 58
-263 139 -43 38 -79 73 -80 78 -2 9 79 22 101 16 8 -1 17 -3 21 -3z m-4399
-64 c0 -3 -4 -8 -10 -11 -5 -3 -10 -1 -10 4 0 6 5 11 10 11 6 0 10 -2 10 -4z
m4170 -6 c0 -5 -2 -10 -4 -10 -3 0 -8 5 -11 10 -3 6 -1 10 4 10 6 0 11 -4 11
-10z m-4336 -80 c-22 -16 -44 -34 -49 -38 -10 -9 -123 -82 -178 -116 -53 -33
-37 -10 40 58 42 37 99 78 127 91 96 44 112 45 60 5z m4544 -5 c53 -26 102
-62 102 -77 0 -21 -48 -4 -106 37 -96 69 -95 88 4 40z m183 -141 c12 -13 19
-24 14 -24 -13 0 -75 41 -75 50 0 15 38 -1 61 -26z m202 -73 c59 -60 107 -114
107 -120 0 -15 -81 29 -154 84 -73 55 -146 121 -146 133 0 5 19 10 43 10 41 1
46 -3 150 -107z m213 -225 c100 -104 118 -126 107 -126 -9 0 -95 64 -129 95
-6 5 -30 27 -54 49 -30 27 -39 41 -30 46 22 14 47 -1 106 -64z m208 -218 c24
-33 19 -41 -9 -16 -14 12 -25 25 -25 30 0 16 19 8 34 -14z m372 -323 c32 -38
62 -74 67 -80 4 -5 16 -21 27 -34 11 -13 18 -27 14 -30 -7 -7 -208 198 -217
221 -14 39 51 -8 109 -77z"/>
<path d="M2668 3783 c7 -3 16 -2 19 1 4 3 -2 6 -13 5 -11 0 -14 -3 -6 -6z"/>
<path d="M2635 3520 l-90 -6 85 -1 c47 -1 96 3 110 7 29 9 28 9 -105 0z"/>
<path d="M3005 3520 c-3 -5 -1 -10 4 -10 6 0 11 5 11 10 0 6 -2 10 -4 10 -3 0
-8 -4 -11 -10z"/>
<path d="M3039 3517 c4 -4 43 -7 87 -5 l79 3 -87 5 c-48 3 -83 1 -79 -3z"/>
<path d="M3525 3260 c-3 -5 -1 -10 4 -10 6 0 11 5 11 10 0 6 -2 10 -4 10 -3 0
-8 -4 -11 -10z"/>
<path d="M3408 3253 c6 -2 18 -2 25 0 6 3 1 5 -13 5 -14 0 -19 -2 -12 -5z"/>
<path d="M2646 3257 c8 -5 27 -4 42 1 25 8 23 9 -15 8 -28 0 -37 -3 -27 -9z"/>
<path d="M2188 3253 c7 -3 16 -2 19 1 4 3 -2 6 -13 5 -11 0 -14 -3 -6 -6z"/>
<path d="M3136 3261 c8 -9 64 -8 64 1 0 5 -16 8 -35 6 -19 -1 -32 -4 -29 -7z"/>
<path d="M3700 3006 c0 -2 11 -6 25 -8 14 -3 25 -1 25 3 0 5 -11 9 -25 9 -14
0 -25 -2 -25 -4z"/>
<path d="M3848 2993 c6 -2 18 -2 25 0 6 3 1 5 -13 5 -14 0 -19 -2 -12 -5z"/>
<path d="M3395 3000 c-3 -5 -1 -10 4 -10 6 0 11 5 11 10 0 6 -2 10 -4 10 -3 0
-8 -4 -11 -10z"/>
<path d="M2540 2999 c0 -5 9 -9 20 -9 11 0 20 2 20 4 0 2 -9 6 -20 9 -11 3
-20 1 -20 -4z"/>
<path d="M2610 3000 c0 -5 7 -7 15 -4 8 4 15 8 15 10 0 2 -7 4 -15 4 -8 0 -15
-4 -15 -10z"/>
<path d="M2125 3000 c3 -5 8 -10 11 -10 2 0 4 5 4 10 0 6 -5 10 -11 10 -5 0
-7 -4 -4 -10z"/>
<path d="M2160 3000 c20 -13 33 -13 25 0 -3 6 -14 10 -23 10 -15 0 -15 -2 -2
-10z"/>
<path d="M4339 2519 c-9 -6 8 -9 50 -9 35 0 62 2 60 4 -10 9 -97 14 -110 5z"/>
<path d="M2268 4791 c-21 -25 -49 -59 -62 -74 -14 -16 -40 -47 -58 -69 -18
-23 -38 -46 -43 -52 -6 -6 -28 -33 -50 -61 -22 -27 -43 -52 -46 -55 -3 -3 -27
-32 -54 -65 -26 -33 -67 -82 -91 -110 -23 -27 -72 -86 -109 -130 -37 -44 -84
-100 -104 -125 -21 -25 -100 -119 -175 -210 -75 -91 -145 -174 -154 -185 -23
-27 -163 -195 -183 -220 -18 -21 -124 -148 -188 -225 -21 -25 -100 -119 -175
-210 -75 -91 -145 -174 -154 -185 -9 -11 -51 -60 -92 -110 -41 -49 -79 -95
-85 -101 -5 -6 -26 -30 -45 -54 -19 -24 -52 -64 -74 -89 -51 -62 -57 -68 -171
-206 -54 -66 -103 -123 -108 -126 -5 -4 -8 -12 -6 -18 3 -7 29 18 59 55 30 37
60 72 65 78 6 6 44 52 85 101 41 50 80 95 85 101 6 6 26 30 45 54 19 24 40 48
45 54 6 6 28 34 50 61 22 28 42 52 45 55 5 4 129 153 171 205 16 18 128 153
168 200 13 16 154 185 232 280 10 11 36 43 59 70 49 59 60 72 120 145 25 30
47 57 50 60 5 5 85 101 121 145 10 11 36 43 59 70 23 28 51 61 63 75 11 14 32
39 46 56 14 17 42 50 63 75 20 24 45 54 56 67 11 13 35 42 54 64 18 23 49 60
68 83 80 95 124 148 254 305 177 213 175 211 198 236 11 12 16 24 11 27 -4 3
-25 -16 -45 -42z"/>
<path d="M3295 4570 c-7 -12 2 -12 30 0 19 8 19 9 -2 9 -12 1 -25 -3 -28 -9z"/>
<path d="M3720 4570 c0 -5 7 -7 15 -4 8 4 15 8 15 10 0 2 -7 4 -15 4 -8 0 -15
-4 -15 -10z"/>
<path d="M2485 4488 c-43 -46 -128 -135 -189 -199 -219 -228 -432 -453 -477
-503 -26 -28 -78 -83 -115 -122 -111 -114 -585 -609 -685 -716 -186 -197 -322
-340 -450 -472 -80 -83 -165 -173 -190 -200 -57 -64 -98 -107 -231 -243 -61
-62 -108 -117 -106 -123 2 -7 44 32 93 86 102 110 130 139 299 314 101 105
208 218 471 495 17 17 68 72 114 121 107 113 261 274 415 434 67 69 161 168
210 220 49 52 134 142 190 200 99 104 400 419 485 509 24 25 75 80 115 121
135 143 150 160 139 160 -5 0 -45 -37 -88 -82z"/>
<path d="M3053 4563 c20 -2 54 -2 75 0 20 2 3 4 -38 4 -41 0 -58 -2 -37 -4z"/>
<path d="M3418 4563 c34 -2 90 -2 125 0 34 2 6 3 -63 3 -69 0 -97 -1 -62 -3z"/>
<path d="M3818 4563 c34 -2 90 -2 125 0 34 2 6 3 -63 3 -69 0 -97 -1 -62 -3z"/>
<path d="M2876 4312 c-2 -4 4 -9 15 -9 11 -1 17 2 14 8 -7 11 -22 12 -29 1z"/>
<path d="M3370 4310 c-13 -8 -13 -10 2 -10 9 0 20 5 23 10 8 13 -5 13 -25 0z"/>
<path d="M3517 4307 c6 -9 273 -8 273 1 0 4 -63 7 -139 7 -76 0 -137 -4 -134
-8z"/>
<path d="M3158 4303 c23 -2 61 -2 85 0 23 2 4 4 -43 4 -47 0 -66 -2 -42 -4z"/>
<path d="M2860 4049 c0 -5 5 -7 10 -4 6 3 10 8 10 11 0 2 -4 4 -10 4 -5 0 -10
-5 -10 -11z"/>
<path d="M2960 4056 c0 -10 28 -13 41 -5 10 6 7 9 -13 9 -16 0 -28 -2 -28 -4z"/>
<path d="M3176 4048 c3 -4 9 -8 15 -8 5 0 9 4 9 8 0 5 -7 9 -15 9 -8 0 -12 -4
-9 -9z"/>
<path d="M3610 4049 c0 -5 5 -7 10 -4 6 3 10 8 10 11 0 2 -4 4 -10 4 -5 0 -10
-5 -10 -11z"/>
<path d="M3778 3783 c12 -2 32 -2 45 0 12 2 2 4 -23 4 -25 0 -35 -2 -22 -4z"/>
<path d="M3968 3783 c7 -3 16 -2 19 1 4 3 -2 6 -13 5 -11 0 -14 -3 -6 -6z"/>
<path d="M3460 3520 c-12 -8 -10 -10 8 -10 13 0 20 4 17 10 -7 12 -6 12 -25 0z"/>
<path d="M3820 3519 c0 -4 45 -7 100 -8 55 -1 100 2 100 6 0 4 -45 8 -100 8
-55 0 -100 -3 -100 -6z"/>
<path d="M4280 3520 l-45 -7 40 -1 c22 -1 47 3 55 8 8 5 11 9 5 8 -5 0 -30 -4
-55 -8z"/>
<path d="M4360 3519 c0 -5 5 -7 10 -4 6 3 10 8 10 11 0 2 -4 4 -10 4 -5 0 -10
-5 -10 -11z"/>
<path d="M4573 3513 c15 -2 37 -2 50 0 12 2 0 4 -28 4 -27 0 -38 -2 -22 -4z"/>
<path d="M4246 3262 c-2 -4 4 -8 14 -8 10 0 16 4 14 8 -3 4 -9 8 -14 8 -5 0
-11 -4 -14 -8z"/>
<path d="M4399 3257 c5 -5 26 -7 47 -5 l39 3 -47 5 c-26 3 -43 1 -39 -3z"/>
<path d="M4560 3266 c0 -2 7 -7 16 -10 8 -3 12 -2 9 4 -6 10 -25 14 -25 6z"/>
<path d="M4835 3260 c3 -5 8 -10 11 -10 2 0 4 5 4 10 0 6 -5 10 -11 10 -5 0
-7 -4 -4 -10z"/>
<path d="M1454 3253 c15 -16 91 -32 100 -23 7 7 -1 10 -21 10 -18 0 -35 5 -38
10 -3 6 -16 10 -27 10 -12 0 -18 -3 -14 -7z"/>
<path d="M3728 3253 c6 -2 18 -2 25 0 6 3 1 5 -13 5 -14 0 -19 -2 -12 -5z"/>
<path d="M4098 3253 c12 -2 32 -2 45 0 12 2 2 4 -23 4 -25 0 -35 -2 -22 -4z"/>
<path d="M4608 3003 c6 -2 18 -2 25 0 6 3 1 5 -13 5 -14 0 -19 -2 -12 -5z"/>
<path d="M4930 3000 c0 -5 7 -10 15 -10 8 0 15 5 15 10 0 6 -7 10 -15 10 -8 0
-15 -4 -15 -10z"/>
<path d="M5088 2733 c6 -2 18 -2 25 0 6 3 1 5 -13 5 -14 0 -19 -2 -12 -5z"/>
<path d="M1620 2469 c0 -5 5 -7 10 -4 6 3 10 8 10 11 0 2 -4 4 -10 4 -5 0 -10
-5 -10 -11z"/>
<path d="M3800 2476 c0 -7 40 -14 44 -7 3 4 -6 8 -20 9 -13 1 -24 0 -24 -2z"/>
<path d="M4863 2473 c9 -2 23 -2 30 0 6 3 -1 5 -18 5 -16 0 -22 -2 -12 -5z"/>
<path d="M5388 2473 c7 -3 16 -2 19 1 4 3 -2 6 -13 5 -11 0 -14 -3 -6 -6z"/>
<path d="M3868 2463 c7 -3 16 -2 19 1 4 3 -2 6 -13 5 -11 0 -14 -3 -6 -6z"/>
<path d="M1485 2210 c3 -5 8 -10 11 -10 2 0 4 5 4 10 0 6 -5 10 -11 10 -5 0
-7 -4 -4 -10z"/>
<path d="M2227 2213 c397 -2 1049 -2 1450 0 400 1 76 2 -722 2 -797 0 -1125
-1 -728 -2z"/>
<path d="M5090 2216 c0 -9 30 -14 35 -6 4 6 -3 10 -14 10 -12 0 -21 -2 -21 -4z"/>
<path d="M5323 2214 c8 -9 47 -13 51 -6 2 4 -9 8 -25 8 -17 1 -28 0 -26 -2z"/>
<path d="M3075 1950 l-1810 -5 1838 -3 c1010 -1 1837 0 1837 2 0 10 -175 11
-1865 6z"/>
<path d="M5679 1947 c5 -5 26 -7 47 -5 l39 3 -47 5 c-26 3 -43 1 -39 -3z"/>
<path d="M5926 1422 c-3 -5 1 -9 9 -9 8 0 15 4 15 9 0 4 -4 8 -9 8 -6 0 -12
-4 -15 -8z"/>
<path d="M6065 1420 c-3 -5 -1 -10 4 -10 6 0 11 5 11 10 0 6 -2 10 -4 10 -3 0
-8 -4 -11 -10z"/>
<path d="M770 1160 c-13 -8 -12 -10 3 -10 9 0 17 5 17 10 0 12 -1 12 -20 0z"/>
<path d="M5845 1165 c23 -8 85 -10 85 -3 0 4 -21 8 -47 7 -27 0 -43 -2 -38 -4z"/>
<path d="M600 900 c0 -5 5 -10 11 -10 5 0 7 5 4 10 -3 6 -8 10 -11 10 -2 0 -4
-4 -4 -10z"/>
<path d="M6168 893 c7 -3 16 -2 19 1 4 3 -2 6 -13 5 -11 0 -14 -3 -6 -6z"/>
<path d="M1903 633 c830 -2 2184 -2 3010 0 826 1 148 2 -1508 2 -1655 0 -2331
-1 -1502 -2z"/>
<path d="M6438 633 c7 -3 16 -2 19 1 4 3 -2 6 -13 5 -11 0 -14 -3 -6 -6z"/>
</g>
</svg>
